<svg id="visual" viewBox="0 0 390 840" width="390" height="840" xmlns="http://www.w3.org/2000/svg" xmlns:xlink="http://www.w3.org/1999/xlink" version="1.1"><rect x="0" y="0" width="390" height="840" fill="#001220"></rect><defs><linearGradient id="grad1_0" x1="0%" y1="100%" x2="100%" y2="0%"><stop offset="30%" stop-color="#4272f5" stop-opacity="1"></stop><stop offset="70%" stop-color="#4272f5" stop-opacity="1"></stop></linearGradient></defs><defs><linearGradient id="grad1_1" x1="0%" y1="100%" x2="100%" y2="0%"><stop offset="30%" stop-color="#4272f5" stop-opacity="1"></stop><stop offset="70%" stop-color="#0061c9" stop-opacity="1"></stop></linearGradient></defs><defs><linearGradient id="grad1_2" x1="0%" y1="100%" x2="100%" y2="0%"><stop offset="30%" stop-color="#004e9c" stop-opacity="1"></stop><stop offset="70%" stop-color="#0061c9" stop-opacity="1"></stop></linearGradient></defs><defs><linearGradient id="grad1_3" x1="0%" y1="100%" x2="100%" y2="0%"><stop offset="30%" stop-color="#004e9c" stop-opacity="1"></stop><stop offset="70%" stop-color="#003a70" stop-opacity="1"></stop></linearGradient></defs><defs><linearGradient id="grad1_4" x1="0%" y1="100%" x2="100%" y2="0%"><stop offset="30%" stop-color="#002646" stop-opacity="1"></stop><stop offset="70%" stop-color="#003a70" stop-opacity="1"></stop></linearGradient></defs><defs><linearGradient id="grad1_5" x1="0%" y1="100%" x2="100%" y2="0%"><stop offset="30%" stop-color="#002646" stop-opacity="1"></stop><stop offset="70%" stop-color="#001220" stop-opacity="1"></stop></linearGradient></defs><defs><linearGradient id="grad2_0" x1="0%" y1="100%" x2="100%" y2="0%"><stop offset="30%" stop-color="#4272f5" stop-opacity="1"></stop><stop offset="70%" stop-color="#4272f5" stop-opacity="1"></stop></linearGradient></defs><defs><linearGradient id="grad2_1" x1="0%" y1="100%" x2="100%" y2="0%"><stop offset="30%" stop-color="#0061c9" stop-opacity="1"></stop><stop offset="70%" stop-color="#4272f5" stop-opacity="1"></stop></linearGradient></defs><defs><linearGradient id="grad2_2" x1="0%" y1="100%" x2="100%" y2="0%"><stop offset="30%" stop-color="#0061c9" stop-opacity="1"></stop><stop offset="70%" stop-color="#004e9c" stop-opacity="1"></stop></linearGradient></defs><defs><linearGradient id="grad2_3" x1="0%" y1="100%" x2="100%" y2="0%"><stop offset="30%" stop-color="#003a70" stop-opacity="1"></stop><stop offset="70%" stop-color="#004e9c" stop-opacity="1"></stop></linearGradient></defs><defs><linearGradient id="grad2_4" x1="0%" y1="100%" x2="100%" y2="0%"><stop offset="30%" stop-color="#003a70" stop-opacity="1"></stop><stop offset="70%" stop-color="#002646" stop-opacity="1"></stop></linearGradient></defs><defs><linearGradient id="grad2_5" x1="0%" y1="100%" x2="100%" y2="0%"><stop offset="30%" stop-color="#001220" stop-opacity="1"></stop><stop offset="70%" stop-color="#002646" stop-opacity="1"></stop></linearGradient></defs><g transform="translate(390, 840)"><path d="M-188 0C-184.3 -23.7 -180.6 -47.4 -173.7 -71.9C-166.8 -96.5 -156.6 -122 -137.9 -137.9C-119.1 -153.8 -91.8 -160.2 -67.4 -162.6C-42.9 -165 -21.5 -163.5 0 -162L0 0Z" fill="#001c32"></path><path d="M-156.7 0C-153.6 -19.7 -150.5 -39.5 -144.7 -60C-139 -80.4 -130.5 -101.6 -114.9 -114.9C-99.3 -128.2 -76.5 -133.5 -56.1 -135.5C-35.8 -137.5 -17.9 -136.3 0 -135L0 0Z" fill="#00305b"></path><path d="M-125.3 0C-122.9 -15.8 -120.4 -31.6 -115.8 -48C-111.2 -64.3 -104.4 -81.3 -91.9 -91.9C-79.4 -102.5 -61.2 -106.8 -44.9 -108.4C-28.6 -110 -14.3 -109 0 -108L0 0Z" fill="#004486"></path><path d="M-94 0C-92.2 -11.8 -90.3 -23.7 -86.8 -36C-83.4 -48.3 -78.3 -61 -68.9 -68.9C-59.6 -76.9 -45.9 -80.1 -33.7 -81.3C-21.5 -82.5 -10.7 -81.8 0 -81L0 0Z" fill="#0057b2"></path><path d="M-62.7 0C-61.4 -7.9 -60.2 -15.8 -57.9 -24C-55.6 -32.2 -52.2 -40.7 -46 -46C-39.7 -51.3 -30.6 -53.4 -22.5 -54.2C-14.3 -55 -7.2 -54.5 0 -54L0 0Z" fill="#266adf"></path><path d="M-31.3 0C-30.7 -3.9 -30.1 -7.9 -28.9 -12C-27.8 -16.1 -26.1 -20.3 -23 -23C-19.9 -25.6 -15.3 -26.7 -11.2 -27.1C-7.2 -27.5 -3.6 -27.3 0 -27L0 0Z" fill="#4272f5"></path></g><g transform="translate(0, 0)"><path d="M195 0C179.3 21.8 163.7 43.5 151.5 62.8C139.4 82 130.8 98.7 118.8 118.8C106.8 138.9 91.5 162.3 71.2 171.8C50.8 181.4 25.4 177.2 0 173L0 0Z" fill="#001c32"></path><path d="M162.5 0C149.4 18.1 136.4 36.3 126.3 52.3C116.1 68.3 109 82.3 99 99C89 115.7 76.3 135.2 59.3 143.2C42.4 151.2 21.2 147.7 0 144.2L0 0Z" fill="#00305b"></path><path d="M130 0C119.6 14.5 109.1 29 101 41.8C92.9 54.7 87.2 65.8 79.2 79.2C71.2 92.6 61 108.2 47.5 114.6C33.9 121 16.9 118.1 0 115.3L0 0Z" fill="#004486"></path><path d="M97.5 0C89.7 10.9 81.8 21.8 75.8 31.4C69.7 41 65.4 49.4 59.4 59.4C53.4 69.4 45.8 81.1 35.6 85.9C25.4 90.7 12.7 88.6 0 86.5L0 0Z" fill="#0057b2"></path><path d="M65 0C59.8 7.3 54.6 14.5 50.5 20.9C46.5 27.3 43.6 32.9 39.6 39.6C35.6 46.3 30.5 54.1 23.7 57.3C16.9 60.5 8.5 59.1 0 57.7L0 0Z" fill="#266adf"></path><path d="M32.5 0C29.9 3.6 27.3 7.3 25.3 10.5C23.2 13.7 21.8 16.5 19.8 19.8C17.8 23.1 15.3 27 11.9 28.6C8.5 30.2 4.2 29.5 0 28.8L0 0Z" fill="#4272f5"></path></g></svg>