<svg id="visual" viewBox="0 0 980 180" width="980" height="180" xmlns="http://www.w3.org/2000/svg" xmlns:xlink="http://www.w3.org/1999/xlink" version="1.1"><rect x="0" y="0" width="980" height="180" fill="#001220"></rect><path d="M0 62L18.2 65.8C36.3 69.7 72.7 77.3 109 80.7C145.3 84 181.7 83 218 77.8C254.3 72.7 290.7 63.3 327 58.7C363.3 54 399.7 54 435.8 56.3C472 58.7 508 63.3 544.2 67.5C580.3 71.7 616.7 75.3 653 77.7C689.3 80 725.7 81 762 86.7C798.3 92.3 834.7 102.7 871 100.8C907.3 99 943.7 85 961.8 78L980 71L980 181L961.8 181C943.7 181 907.3 181 871 181C834.7 181 798.3 181 762 181C725.7 181 689.3 181 653 181C616.7 181 580.3 181 544.2 181C508 181 472 181 435.8 181C399.7 181 363.3 181 327 181C290.7 181 254.3 181 218 181C181.7 181 145.3 181 109 181C72.7 181 36.3 181 18.2 181L0 181Z" fill="#4272f5" stroke-linecap="round" stroke-linejoin="miter"></path></svg>