<svg xmlns="http://www.w3.org/2000/svg" xmlns:xlink="http://www.w3.org/1999/xlink" id="visual" viewBox="0 0 1980 1080" width="1980" height="1080" version="1.1"><rect x="0" y="0" width="1980" height="1080" fill="#ededed"/><defs fill="#000000"><linearGradient id="grad1_0" x1="45.5%" y1="100%" x2="100%" y2="0%" fill="#000000"><stop offset="13.333333333333334%" stop-color="#4272f5" stop-opacity="1" fill="#000000"/><stop offset="86.66666666666667%" stop-color="#4272f5" stop-opacity="1" fill="#000000"/></linearGradient></defs><defs fill="#000000"><linearGradient id="grad1_1" x1="45.5%" y1="100%" x2="100%" y2="0%" fill="#000000"><stop offset="13.333333333333334%" stop-color="#4272f5" stop-opacity="1" fill="#000000"/><stop offset="86.66666666666667%" stop-color="#005cbd" stop-opacity="1" fill="#000000"/></linearGradient></defs><defs fill="#000000"><linearGradient id="grad1_2" x1="45.5%" y1="100%" x2="100%" y2="0%" fill="#000000"><stop offset="13.333333333333334%" stop-color="#004486" stop-opacity="1" fill="#000000"/><stop offset="86.66666666666667%" stop-color="#005cbd" stop-opacity="1" fill="#000000"/></linearGradient></defs><defs fill="#000000"><linearGradient id="grad1_3" x1="45.5%" y1="100%" x2="100%" y2="0%" fill="#000000"><stop offset="13.333333333333334%" stop-color="#004486" stop-opacity="1" fill="#000000"/><stop offset="86.66666666666667%" stop-color="#002b50" stop-opacity="1" fill="#000000"/></linearGradient></defs><defs fill="#000000"><linearGradient id="grad1_4" x1="45.5%" y1="100%" x2="100%" y2="0%" fill="#000000"><stop offset="13.333333333333334%" stop-color="#ededed" stop-opacity="1" fill="#000000"/><stop offset="86.66666666666667%" stop-color="#002b50" stop-opacity="1" fill="#000000"/></linearGradient></defs><defs fill="#000000"><linearGradient id="grad2_0" x1="0%" y1="100%" x2="54.5%" y2="0%" fill="#000000"><stop offset="13.333333333333334%" stop-color="#4272f5" stop-opacity="1" fill="#000000"/><stop offset="86.66666666666667%" stop-color="#4272f5" stop-opacity="1" fill="#000000"/></linearGradient></defs><defs fill="#000000"><linearGradient id="grad2_1" x1="0%" y1="100%" x2="54.5%" y2="0%" fill="#000000"><stop offset="13.333333333333334%" stop-color="#005cbd" stop-opacity="1" fill="#000000"/><stop offset="86.66666666666667%" stop-color="#4272f5" stop-opacity="1" fill="#000000"/></linearGradient></defs><defs fill="#000000"><linearGradient id="grad2_2" x1="0%" y1="100%" x2="54.5%" y2="0%" fill="#000000"><stop offset="13.333333333333334%" stop-color="#005cbd" stop-opacity="1" fill="#000000"/><stop offset="86.66666666666667%" stop-color="#004486" stop-opacity="1" fill="#000000"/></linearGradient></defs><defs fill="#000000"><linearGradient id="grad2_3" x1="0%" y1="100%" x2="54.5%" y2="0%" fill="#000000"><stop offset="13.333333333333334%" stop-color="#002b50" stop-opacity="1" fill="#000000"/><stop offset="86.66666666666667%" stop-color="#004486" stop-opacity="1" fill="#000000"/></linearGradient></defs><defs fill="#000000"><linearGradient id="grad2_4" x1="0%" y1="100%" x2="54.5%" y2="0%" fill="#000000"><stop offset="13.333333333333334%" stop-color="#002b50" stop-opacity="1" fill="#000000"/><stop offset="86.66666666666667%" stop-color="#ededed" stop-opacity="1" fill="#000000"/></linearGradient></defs><g transform="translate(1980, 1080)"><path d="M-520 0C-519.5 -73.3 -519 -146.5 -486 -201.3C-453 -256 -387.5 -292.3 -335.9 -335.9C-284.3 -379.5 -246.5 -430.4 -192.9 -465.6C-139.2 -500.9 -69.6 -520.4 0 -540L0 0Z" fill="#001f37"/><path d="M-416 0C-415.6 -58.6 -415.2 -117.2 -388.8 -161C-362.4 -204.8 -310 -233.8 -268.7 -268.7C-227.4 -303.6 -197.2 -344.3 -154.3 -372.5C-111.4 -400.7 -55.7 -416.4 0 -432L0 0Z" fill="#00386b"/><path d="M-312 0C-311.7 -44 -311.4 -87.9 -291.6 -120.8C-271.8 -153.6 -232.5 -175.4 -201.5 -201.5C-170.6 -227.7 -147.9 -258.2 -115.7 -279.4C-83.5 -300.5 -41.8 -312.3 0 -324L0 0Z" fill="#0050a1"/><path d="M-208 0C-207.8 -29.3 -207.6 -58.6 -194.4 -80.5C-181.2 -102.4 -155 -116.9 -134.4 -134.4C-113.7 -151.8 -98.6 -172.2 -77.1 -186.3C-55.7 -200.4 -27.8 -208.2 0 -216L0 0Z" fill="#1f67d9"/><path d="M-104 0C-103.9 -14.7 -103.8 -29.3 -97.2 -40.3C-90.6 -51.2 -77.5 -58.5 -67.2 -67.2C-56.9 -75.9 -49.3 -86.1 -38.6 -93.1C-27.8 -100.2 -13.9 -104.1 0 -108L0 0Z" fill="#4272f5"/></g><g transform="translate(0, 0)"><path d="M540 0C489.6 56.4 439.2 112.7 405.6 168C372 223.3 355.2 277.5 321 321C286.8 364.5 235.1 397.2 178.7 431.5C122.3 465.7 61.1 501.3 0 537L0 0Z" fill="#001f37"/><path d="M432 0C391.7 45.1 351.3 90.2 324.5 134.4C297.6 178.6 284.2 222 256.8 256.8C229.4 291.6 188.1 317.8 143 345.2C97.8 372.5 48.9 401.1 0 429.6L0 0Z" fill="#00386b"/><path d="M324 0C293.8 33.8 263.5 67.6 243.3 100.8C223.2 134 213.1 166.5 192.6 192.6C172.1 218.7 141.1 238.3 107.2 258.9C73.4 279.4 36.7 300.8 0 322.2L0 0Z" fill="#0050a1"/><path d="M216 0C195.8 22.5 175.7 45.1 162.2 67.2C148.8 89.3 142.1 111 128.4 128.4C114.7 145.8 94.1 158.9 71.5 172.6C48.9 186.3 24.5 200.5 0 214.8L0 0Z" fill="#1f67d9"/><path d="M108 0C97.9 11.3 87.8 22.5 81.1 33.6C74.4 44.7 71 55.5 64.2 64.2C57.4 72.9 47 79.4 35.7 86.3C24.5 93.1 12.2 100.3 0 107.4L0 0Z" fill="#4272f5"/></g></svg>